<?xml version="1.0" encoding="utf-8"?>
<!-- Generator: Adobe Illustrator 24.1.0, SVG Export Plug-In . SVG Version: 6.00 Build 0)  -->
<!DOCTYPE svg PUBLIC "-//W3C//DTD SVG 1.1//EN" "http://www.w3.org/Graphics/SVG/1.1/DTD/svg11.dtd" [
	<!ENTITY ns_extend "http://ns.adobe.com/Extensibility/1.0/">
	<!ENTITY ns_ai "http://ns.adobe.com/AdobeIllustrator/10.0/">
	<!ENTITY ns_graphs "http://ns.adobe.com/Graphs/1.0/">
	<!ENTITY ns_vars "http://ns.adobe.com/Variables/1.0/">
	<!ENTITY ns_imrep "http://ns.adobe.com/ImageReplacement/1.0/">
	<!ENTITY ns_sfw "http://ns.adobe.com/SaveForWeb/1.0/">
	<!ENTITY ns_custom "http://ns.adobe.com/GenericCustomNamespace/1.0/">
	<!ENTITY ns_adobe_xpath "http://ns.adobe.com/XPath/1.0/">
]>
<svg version="1.1" id="katman_1" xmlns:x="&ns_extend;" xmlns:i="&ns_ai;" xmlns:graph="&ns_graphs;"
	 xmlns="http://www.w3.org/2000/svg" xmlns:xlink="http://www.w3.org/1999/xlink" x="0px" y="0px" width="173.32px"
	 height="37.56px" viewBox="0 0 173.32 37.56" style="enable-background:new 0 0 173.32 37.56;" xml:space="preserve">
<style type="text/css">
	.st0{fill:#FFFFFF;}
</style>
<metadata>
	<sfw  xmlns="&ns_sfw;">
		<slices></slices>
		<sliceSourceBounds  bottomLeftOrigin="true" height="16383" width="765.9" x="1094.32" y="-8613"></sliceSourceBounds>
		<optimizationSettings>
			<targetSettings  fileFormat="PNG24Format" targetSettingsID="0">
				<PNG24Format  filtered="false" interlaced="false" matteColor="#FFFFFF" noMatteColor="false" transparency="true">
					</PNG24Format>
			</targetSettings>
		</optimizationSettings>
	</sfw>
</metadata>
<g>
</g>
<g>
</g>
<g>
</g>
<g>
</g>
<g>
</g>
<g>
</g>
<g>
</g>
<g>
</g>
<g>
</g>
<g>
</g>
<g>
</g>
<g>
</g>
<g>
</g>
<g>
</g>
<g>
</g>
<g>
</g>
<g>
	<g id="XMLID_620_">
		<path class="st0" d="M36.44,11.15C33.36,5.1,27.08,0.95,19.82,0.95c-7.25,0-13.53,4.14-16.62,10.18c-1.3,2.54-2.04,5.42-2.04,8.47
			c0,7.25,4.14,13.54,10.19,16.62l1.86-1.86c-5.73-2.51-9.73-8.17-9.73-14.76c0-2.39,0.53-4.67,1.48-6.71
			c2.58-5.57,8.26-9.43,14.86-9.43c6.6,0,12.28,3.87,14.86,9.44c0.94,2.04,1.47,4.31,1.47,6.7c0,6.59-4,12.25-9.72,14.76l1.86,1.86
			c6.04-3.09,10.18-9.37,10.18-16.62C38.48,16.56,37.74,13.69,36.44,11.15"/>
	</g>
	<g id="XMLID_619_">
		<path class="st0" d="M32.94,14.65c-2-5.3-7.12-9.07-13.12-9.07c-6,0-11.11,3.76-13.12,9.06c-0.59,1.55-0.91,3.22-0.91,4.97
			c0,6,3.77,11.12,9.07,13.12l1.83-1.83C11.74,29.53,8.1,25,8.1,19.61c0-1.09,0.15-2.14,0.43-3.14c1.37-4.95,5.91-8.58,11.29-8.58
			c5.39,0,9.92,3.64,11.29,8.59c0.28,1,0.43,2.05,0.43,3.13c0,5.38-3.63,9.92-8.58,11.29l1.83,1.83c5.29-2.01,9.06-7.12,9.06-13.12
			C33.85,17.86,33.53,16.19,32.94,14.65"/>
	</g>
	<g id="XMLID_618_">
		<path class="st0" d="M12.75,19.61c0-3.51,2.56-6.42,5.91-6.97v13.95c0,0-0.01,0-0.01,0l1.18,1.18l1.18-1.18
			c-0.01,0-0.02,0-0.03,0.01V12.63c3.35,0.55,5.91,3.47,5.91,6.97c0,0.41-0.04,0.8-0.1,1.19l2.36-2.36
			c-0.58-4.64-4.53-8.23-9.33-8.23c-4.79,0-8.75,3.59-9.33,8.22l2.36,2.36C12.78,20.4,12.75,20.01,12.75,19.61"/>
	</g>
	<g>
		<g id="XMLID_615_">
			<path class="st0" d="M100.27,13.06h4.31v2.57h0.06c1.12-1.79,2.87-2.55,4.91-2.55c5.17,0,7.49,3.73,7.49,8.42
				c0,4.4-2.39,8.52-7.24,8.52c-2.01,0-3.83-0.41-4.94-2.04h-0.06v7.45h-4.53V13.06z M112.52,21.82c0-2.65-1.05-5.33-3.95-5.33
				c-2.97,0-3.92,2.65-3.92,5.33c0,2.68,1.02,5.23,3.95,5.23C111.56,27.05,112.52,24.5,112.52,21.82"/>
		</g>
		<g id="XMLID_614_">
			<polygon class="st0" points="52.6,11.89 45.77,11.89 45.77,7.68 64.43,7.68 64.43,11.89 57.6,11.89 57.6,30.02 52.6,30.02 			"/>
		</g>
		<g id="XMLID_613_">
			<polygon class="st0" points="76.35,7.68 80.88,7.68 80.88,19.46 87.14,13.06 92.5,13.06 85.73,19.69 92.5,30.02 87.14,30.02 
				82.64,22.75 80.88,24.44 80.88,30.02 76.35,30.02 			"/>
		</g>
		<g id="XMLID_612_">
			<polygon class="st0" points="94.12,17.5 98.65,13.06 98.65,30.02 94.12,30.02 			"/>
		</g>
		<g id="XMLID_611_">
			<path class="st0" d="M152.7,13.06h4.31v2.77h0.1c1.15-1.88,3.13-2.74,5.04-2.74c4.82,0,6.03,2.71,6.03,6.79v5.67l-4.53,4.48V20.7
				c0-2.71-0.77-4.05-2.9-4.05c-2.46,0-3.51,1.37-3.51,4.72v8.64h-4.53V13.06z"/>
		</g>
		<g id="XMLID_608_">
			<g id="XMLID_610_">
				<polygon class="st0" points="168.17,13.06 169.85,13.06 169.85,13.23 169.11,13.23 169.11,15.17 168.91,15.17 168.91,13.23 
					168.17,13.23 				"/>
			</g>
			<g id="XMLID_609_">
				<polygon class="st0" points="169.83,13.06 170.13,13.06 170.86,14.91 171.58,13.06 171.88,13.06 171.88,15.17 171.68,15.17 
					171.68,13.35 171.67,13.35 170.95,15.17 170.76,15.17 170.04,13.35 170.03,13.35 170.03,15.17 169.83,15.17 				"/>
			</g>
		</g>
		<g id="XMLID_607_">
			<polyline class="st0" points="94.12,11.35 94.12,7.68 97.86,7.68 			"/>
		</g>
		<g id="XMLID_604_">
			<path class="st0" d="M67.49,13.08c-3.7,0-7.49,1.31-7.75,5.52h4.53c0.16-1.79,1.24-2.49,3-2.49c1.59,0,2.93,0.32,2.93,2.23
				c0.19,3.7-10.91-0.77-10.97,6.73c0,3.38,2.46,4.94,5.61,4.94c2.04,0,4.11-0.1,5.55-1.59v1.59h0.32h4.02v-3.67v-0.76v-7.82
				C74.73,13.81,70.77,13.08,67.49,13.08z M70.2,23.64c0,1.02-0.13,3.79-3.67,3.79c-1.47,0-2.77-0.45-2.77-2.1
				c0-1.66,1.28-2.17,2.68-2.42c1.4-0.25,3-0.29,3.76-0.96V23.64z"/>
		</g>
		<g id="XMLID_601_">
			<path class="st0" d="M143.84,13.08c-3.7,0-7.49,1.31-7.75,5.52h4.53c0.16-1.79,1.24-2.49,3-2.49c1.59,0,2.93,0.32,2.93,2.23
				c0.19,3.7-10.91-0.77-10.97,6.73c0,3.38,2.46,4.94,5.61,4.94c2.04,0,4.11-0.1,5.55-1.59v1.59h0.32h4.02v-3.67v-0.76v-7.82
				C151.08,13.81,147.12,13.08,143.84,13.08z M146.55,23.64c0,1.02-0.13,3.79-3.67,3.79c-1.47,0-2.77-0.45-2.77-2.1
				c0-1.66,1.28-2.17,2.68-2.42c1.4-0.25,3-0.29,3.76-0.96V23.64z"/>
		</g>
		<g id="XMLID_600_">
			<path class="st0" d="M122.98,24.23c0,1.95,1.72,2.77,3.48,2.77c1.28,0,2.97-0.51,2.97-2.1c0-1.37-1.91-1.88-5.13-2.55
				c-2.65-0.61-5.23-1.04-5.23-3.98c0-4.21,3.64-5.27,7.18-5.29c3.59-0.02,6.92,1.47,7.27,5.52h-4.31c-0.13-1.75-1.35-2.6-3.09-2.49
				c-1.02,0.07-2.52,0.16-2.52,1.53c0,1.63,2.58,1.42,5.13,2.03c2.65,0.61,5.23,1.56,5.23,4.62c0,4.34-3.8,5.74-7.53,5.74
				c-3.83,0-7.59-1.44-7.75-5.8H122.98z"/>
		</g>
	</g>
</g>
</svg>
