<svg xmlns="http://www.w3.org/2000/svg" width="29.854" height="37.317" viewBox="0 0 29.854 37.317"><defs><style>.a{fill:#fd3f77;}</style></defs><g transform="translate(0.003 0.001)"><path class="a" d="M223.272,154.7a.874.874,0,0,0-.874.874v16.517a.874.874,0,1,0,1.748,0V155.577A.874.874,0,0,0,223.272,154.7Zm0,0" transform="translate(-203.275 -141.184)"/><path class="a" d="M105.272,154.7a.874.874,0,0,0-.874.874v16.517a.874.874,0,0,0,1.748,0V155.577A.874.874,0,0,0,105.272,154.7Zm0,0" transform="translate(-95.423 -141.184)"/><path class="a" d="M2.442,11.108V32.64A4.863,4.863,0,0,0,3.7,35.966a4.209,4.209,0,0,0,3.076,1.35H23.067a4.208,4.208,0,0,0,3.076-1.35,4.863,4.863,0,0,0,1.263-3.325V11.108a3.344,3.344,0,0,0-.844-6.565H22.155V3.451A3.46,3.46,0,0,0,21.161,1a3.356,3.356,0,0,0-2.416-1H11.1A3.356,3.356,0,0,0,8.686,1a3.46,3.46,0,0,0-.993,2.45V4.543H3.285a3.344,3.344,0,0,0-.844,6.565Zm20.626,24.46H6.78A2.751,2.751,0,0,1,4.163,32.64V11.185H25.684V32.64A2.751,2.751,0,0,1,23.067,35.568ZM9.414,3.451A1.7,1.7,0,0,1,9.9,2.237a1.645,1.645,0,0,1,1.2-.49h7.644a1.645,1.645,0,0,1,1.2.49,1.7,1.7,0,0,1,.489,1.214V4.543H9.414ZM3.285,6.291H26.562a1.573,1.573,0,0,1,0,3.146H3.285a1.573,1.573,0,0,1,0-3.146Zm0,0" transform="translate(0)"/><path class="a" d="M164.272,154.7a.874.874,0,0,0-.874.874v16.517a.874.874,0,0,0,1.748,0V155.577A.874.874,0,0,0,164.272,154.7Zm0,0" transform="translate(-149.349 -141.184)"/></g></svg>