<svg xmlns="http://www.w3.org/2000/svg" width="51.929" height="51.929" viewBox="0 0 51.929 51.929"><defs><style>.a{fill:#fff;}</style></defs><g transform="translate(1 1)"><g transform="translate(-1 -1)"><g transform="translate(0 0)"><path class="a" d="M43.323,6.605a25.964,25.964,0,1,0,0,36.718A25.963,25.963,0,0,0,43.323,6.605Zm-3.06,33.658a21.636,21.636,0,1,1,0-30.6A21.635,21.635,0,0,1,40.264,40.263Z" transform="translate(1 1)"/><path class="a" d="M165.207,143.793a2.164,2.164,0,0,0-3.06,0l-7.65,7.65-7.65-7.65a2.164,2.164,0,0,0-3.06,3.06l7.65,7.65-7.647,7.647a2.164,2.164,0,0,0,3.06,3.06l7.647-7.647,7.649,7.649a2.164,2.164,0,0,0,3.06-3.06l-7.649-7.649,7.65-7.65A2.164,2.164,0,0,0,165.207,143.793Z" transform="translate(-128.533 -128.539)"/></g></g></g></svg>