<svg xmlns="http://www.w3.org/2000/svg" width="45" height="45" viewBox="0 0 45 45"><defs><style>.a{fill:none;stroke:#7f98b9;stroke-width:3px;}</style></defs><g transform="translate(1.5 1.5)"><g transform="translate(0 0)"><g transform="translate(0 0)"><path class="a" d="M36.439,19.607l-.2-.073-.78-1.9.085-.2c2.364-5.472,2.2-5.636,1.809-6.032L34.2,8.266a.833.833,0,0,0-.55-.222c-.177,0-.715,0-5.371,2.153l-.187.086-1.921-.79-.077-.2c-2.19-5.535-2.414-5.535-2.959-5.535H18.68c-.543,0-.79,0-2.821,5.545l-.076.2-1.911.8-.183-.078A29.031,29.031,0,0,0,8.217,8.182a.836.836,0,0,0-.551.219L4.51,11.55c-.4.4-.566.572,1.921,5.93l.091.2-.782,1.9-.191.075C0,21.843,0,22.056,0,22.626V27.08c0,.572,0,.809,5.56,2.843l.2.072.782,1.894-.084.194c-2.364,5.475-2.214,5.623-1.811,6.032l3.148,3.144a.857.857,0,0,0,.555.222c.176,0,.712,0,5.372-2.152l.187-.089,1.923.794.075.2c2.191,5.533,2.416,5.533,2.962,5.533h4.454c.559,0,.791,0,2.823-5.548l.076-.2,1.914-.79.182.076a28.87,28.87,0,0,0,5.466,2.047.836.836,0,0,0,.554-.219L37.5,37.969c.4-.405.563-.571-1.929-5.924l-.093-.2.78-1.891.186-.075C42,27.678,42,27.464,42,26.893V22.441C42,21.87,42,21.634,36.439,19.607ZM21,31.986a7.221,7.221,0,1,1,7.215-7.223A7.229,7.229,0,0,1,21,31.986Z" transform="translate(0 -3.762)"/></g></g></g></svg>