<svg xmlns="http://www.w3.org/2000/svg" width="40.48" height="40.479" viewBox="0 0 40.48 40.479"><defs><style>.a{fill:#fff;}</style></defs><g transform="translate(0 -0.501)"><path class="a" d="M32.047,99.31A1.686,1.686,0,0,0,30.36,101V114.49a1.688,1.688,0,0,1-1.687,1.687H5.06a1.688,1.688,0,0,1-1.687-1.687V90.876A1.688,1.688,0,0,1,5.06,89.19H18.553a1.687,1.687,0,0,0,0-3.373H5.06A5.066,5.066,0,0,0,0,90.876V114.49a5.066,5.066,0,0,0,5.06,5.06H28.673a5.066,5.066,0,0,0,5.06-5.06V101A1.685,1.685,0,0,0,32.047,99.31Zm0,0" transform="translate(0 -78.57)"/><path class="a" d="M183.248,81.607a.853.853,0,0,0-.231.43L181.824,88a.843.843,0,0,0,.828,1.008.8.8,0,0,0,.165-.017L188.78,87.8a.84.84,0,0,0,.432-.231l13.345-13.345-5.962-5.962Zm0,0" transform="translate(-167.434 -62.403)"/><path class="a" d="M399.742,1.734a4.22,4.22,0,0,0-5.962,0l-2.334,2.334,5.962,5.962L399.742,7.7a4.216,4.216,0,0,0,0-5.962Zm0,0" transform="translate(-360.497)"/></g></svg>