<svg xmlns="http://www.w3.org/2000/svg" width="39.141" height="39.141" viewBox="0 0 39.141 39.141"><defs><style>.a,.b{fill:#e83cdb;}.a{stroke:#e83cdb;stroke-width:0.5px;}</style></defs><g transform="translate(-8.032 7)"><g transform="translate(16.032 -0.001)"><g transform="translate(0 0)"><path class="a" d="M34.614,4.413,25.533.029a.293.293,0,0,0-.255,0L16.2,4.413a.293.293,0,0,0-.166.264V15.323a.293.293,0,0,0,.166.264l9.081,4.384a.293.293,0,0,0,.255,0l9.081-4.384a.293.293,0,0,0,.166-.264V4.676A.293.293,0,0,0,34.614,4.413ZM25.406.618l8.407,4.059L31.376,5.853a.29.29,0,0,0-.05-.031l-8.35-4.031Zm-3.091,1.5L30.71,6.175,28.99,7,20.6,2.954ZM30.906,6.73V9.8l-1.606.775V7.506Zm3.288,8.409-8.5,4.1v-10l2.026-.978a.293.293,0,0,0-.255-.528l-2.065,1-.812-.392a.293.293,0,1,0-.255.528l.774.374v10l-8.5-4.1v-10l6.469,3.123a.293.293,0,0,0,.255-.528L17,4.676l2.91-1.405,8.8,4.249,0,.005v3.516a.293.293,0,0,0,.42.264l2.192-1.058a.293.293,0,0,0,.166-.264V6.448l2.7-1.3v10Z" transform="translate(-16.032 0.001)"/></g></g><g transform="translate(17.283 13.33)"><path class="a" d="M49.8,341.934l-1.333-.643a.293.293,0,1,0-.255.528l1.333.643a.293.293,0,0,0,.255-.528Z" transform="translate(-48.048 -341.261)"/></g><g transform="translate(17.285 11.941)"><path class="a" d="M51.074,306.954l-2.557-1.235a.293.293,0,1,0-.255.528l2.557,1.235a.293.293,0,0,0,.255-.528Z" transform="translate(-48.096 -305.69)"/></g></g><path class="b" d="M17.237,0A17.237,17.237,0,1,0,34.473,17.237,17.257,17.257,0,0,0,17.237,0Zm0,31.291A14.055,14.055,0,1,1,31.291,17.237,14.071,14.071,0,0,1,17.237,31.291Z"/><g transform="translate(26.836 26.836)"><path class="b" d="M362.884,360.634l-9.122-9.122a1.591,1.591,0,0,0-2.25,2.25l9.122,9.122a1.591,1.591,0,0,0,2.25-2.25Z" transform="translate(-351.046 -351.046)"/></g></svg>