<svg xmlns="http://www.w3.org/2000/svg" width="46.453" height="46.453" viewBox="0 0 46.453 46.453"><defs><style>.a{fill:#f7f8fb;}</style></defs><path class="a" d="M95.108,78.641A11.714,11.714,0,0,0,86.875,75.2a11.46,11.46,0,0,0-8.234,3.441,11.675,11.675,0,0,0,8.234,19.908,11.46,11.46,0,0,0,8.234-3.441,11.714,11.714,0,0,0,3.441-8.234A11.46,11.46,0,0,0,95.108,78.641Z" transform="translate(-63.648 -63.648)"/><path class="a" d="M142.4,7.927a1.627,1.627,0,0,0,1.6-1.6V1.6a1.6,1.6,0,0,0-3.2,0V6.329A1.627,1.627,0,0,0,142.4,7.927Z" transform="translate(-119.171)"/><path class="a" d="M221.673,47.452l3.38-3.38a1.564,1.564,0,0,0-2.212-2.212l-3.38,3.38a1.564,1.564,0,1,0,2.212,2.212Z" transform="translate(-185.358 -35.04)"/><path class="a" d="M257.129,140.8H252.4a1.6,1.6,0,1,0,0,3.2h4.731a1.6,1.6,0,1,0,0-3.2Z" transform="translate(-212.273 -119.171)"/><path class="a" d="M221.273,219.061a1.564,1.564,0,0,0-2.212,2.212l3.38,3.38a1.564,1.564,0,1,0,2.212-2.212Z" transform="translate(-185.02 -185.02)"/><path class="a" d="M142.4,250.8a1.627,1.627,0,0,0-1.6,1.6v4.731a1.6,1.6,0,1,0,3.2,0V252.4A1.627,1.627,0,0,0,142.4,250.8Z" transform="translate(-119.171 -212.273)"/><path class="a" d="M44.84,219.061l-3.38,3.38a1.564,1.564,0,1,0,2.212,2.212l3.38-3.38a1.564,1.564,0,0,0-2.212-2.212Z" transform="translate(-34.702 -185.02)"/><path class="a" d="M7.927,142.4a1.627,1.627,0,0,0-1.6-1.6H1.6a1.6,1.6,0,0,0,0,3.2H6.329A1.627,1.627,0,0,0,7.927,142.4Z" transform="translate(0 -119.171)"/><path class="a" d="M44.84,47.452a1.564,1.564,0,0,0,2.212-2.212l-3.38-3.38a1.564,1.564,0,0,0-2.212,2.212Z" transform="translate(-34.702 -35.04)"/></svg>