<svg xmlns="http://www.w3.org/2000/svg" width="48.865" height="54.074" viewBox="0 0 48.865 54.074"><defs><style>.a{fill:#bfcad9;}</style></defs><g transform="translate(-1194.571 -1215.758)"><g transform="translate(-4 1077)"><path class="a" d="M141.745,426.1a8.424,8.424,0,0,1-8.413-8.413,1.683,1.683,0,1,1,3.365,0,5.048,5.048,0,0,0,10.1,0,1.683,1.683,0,1,1,3.365,0A8.424,8.424,0,0,1,141.745,426.1Zm0,0" transform="translate(1079.261 -233.264)"/><path class="a" d="M40.945,104.384H3.926a3.927,3.927,0,0,1-2.553-6.91,1.55,1.55,0,0,1,.18-.135A15.079,15.079,0,0,0,6.731,85.964V79.7A15.724,15.724,0,0,1,22.436,64a6.759,6.759,0,0,1,1.106.067,1.682,1.682,0,1,1-.552,3.318,3.531,3.531,0,0,0-.554-.02A12.354,12.354,0,0,0,10.1,79.7v6.26a18.453,18.453,0,0,1-6.513,14.069c-.034.027-.063.052-.1.076a.555.555,0,0,0-.119.348.567.567,0,0,0,.561.561H40.945a.567.567,0,0,0,.561-.561.536.536,0,0,0-.121-.348c-.034-.025-.063-.049-.1-.076a18.448,18.448,0,0,1-6.513-14.069V83.519a1.683,1.683,0,0,1,3.365,0v2.445a15.084,15.084,0,0,0,5.185,11.382,1.636,1.636,0,0,1,.173.13,3.925,3.925,0,0,1-2.553,6.908Zm0,0" transform="translate(1198.571 81.717)"/><path class="a" d="M267.46,22.919A11.459,11.459,0,1,1,278.919,11.46,11.472,11.472,0,0,1,267.46,22.919Zm0-19.481a8.022,8.022,0,1,0,8.021,8.022A8.03,8.03,0,0,0,267.46,3.438Zm0,0" transform="translate(968.517 138.758)"/></g></g></svg>