<svg xmlns="http://www.w3.org/2000/svg" width="34.217" height="36" viewBox="0 0 34.217 36"><defs><style>.a{fill:#3389fc;}</style></defs><g transform="translate(-11.95)"><g transform="translate(11.95)"><path class="a" d="M40.847,7.379h-.925V5.32A5.327,5.327,0,0,0,34.6,0H23.433a5.327,5.327,0,0,0-5.32,5.32V7.379H17.27a5.327,5.327,0,0,0-5.32,5.32v8.58a5.327,5.327,0,0,0,5.32,5.32h.836v6.745A2.662,2.662,0,0,0,20.762,36h16.5a2.662,2.662,0,0,0,2.656-2.656V26.6h.933a5.327,5.327,0,0,0,5.32-5.32V12.7A5.327,5.327,0,0,0,40.847,7.379ZM20.12,5.32a3.312,3.312,0,0,1,3.305-3.305H34.587A3.312,3.312,0,0,1,37.892,5.32V7.379H20.12ZM37.9,33.359a.646.646,0,0,1-.642.642h-16.5a.646.646,0,0,1-.642-.642V22.234H37.9Zm6.252-12.072a3.312,3.312,0,0,1-3.305,3.305h-.925V22.234H41.25a1.007,1.007,0,1,0,0-2.015H16.628a1.007,1.007,0,1,0,0,2.015h1.485v2.358H17.27a3.312,3.312,0,0,1-3.305-3.305v-8.58A3.312,3.312,0,0,1,17.27,9.4H40.847a3.312,3.312,0,0,1,3.305,3.305Z" transform="translate(-11.95)"/><path class="a" d="M141.653,339.406h12.774a1,1,0,1,0,0-2.006H141.653a1,1,0,1,0,0,2.006Z" transform="translate(-131.018 -312.22)"/><path class="a" d="M155.434,392.6H142.653a1,1,0,1,0,0,2.006h12.774a1,1,0,0,0,.007-2.006Z" transform="translate(-131.943 -363.28)"/><path class="a" d="M361.089,151.9h-2.036a1,1,0,1,0,0,2.006h2.036a1,1,0,0,0,0-2.006Z" transform="translate(-332.193 -140.564)"/></g></g></svg>