<svg xmlns="http://www.w3.org/2000/svg" width="34.711" height="29.891" viewBox="0 0 34.711 29.891"><defs><style>.a{fill:#fd8624;}</style></defs><g transform="translate(0 -35.55)"><g transform="translate(0 43.629)"><g transform="translate(0 0)"><path class="a" d="M9.15,154.713H.806a.806.806,0,0,0-.806.806v4.047a.806.806,0,0,0,.806.806H9.15a.806.806,0,0,0,.806-.806v-4.047A.806.806,0,0,0,9.15,154.713Z" transform="translate(0 -154.713)"/></g></g><g transform="translate(24.754 51.704)"><path class="a" d="M374.285,273.82H365.94a.806.806,0,0,0-.806.806v4.048a.806.806,0,0,0,.806.806h8.345a.806.806,0,0,0,.806-.806v-4.048A.806.806,0,0,0,374.285,273.82Z" transform="translate(-365.134 -273.82)"/></g><g transform="translate(24.754 43.627)"><g transform="translate(0 0)"><path class="a" d="M374.285,154.685H365.94a.806.806,0,0,0-.806.806v4.049a.806.806,0,0,0,.806.806h8.345a.806.806,0,0,0,.806-.806v-4.049A.806.806,0,0,0,374.285,154.685Z" transform="translate(-365.134 -154.685)"/></g></g><g transform="translate(12.381 35.55)"><g transform="translate(0 0)"><path class="a" d="M191.778,35.55h-8.344a.806.806,0,0,0-.806.806v4.05a.806.806,0,0,0,.806.806h8.344a.806.806,0,0,0,.806-.806v-4.05A.806.806,0,0,0,191.778,35.55Z" transform="translate(-182.628 -35.55)"/></g></g><g transform="translate(0 35.55)"><g transform="translate(0 0)"><path class="a" d="M9.15,35.55H.806A.806.806,0,0,0,0,36.356v4.05a.806.806,0,0,0,.806.806H9.15a.806.806,0,0,0,.806-.806v-4.05A.806.806,0,0,0,9.15,35.55Z" transform="translate(0 -35.55)"/></g></g><g transform="translate(0.009 51.703)"><g transform="translate(0 0)"><path class="a" d="M9.284,273.807H.94a.806.806,0,0,0-.806.806v4.049a.806.806,0,0,0,.806.806H9.284a.806.806,0,0,0,.806-.806v-4.049A.806.806,0,0,0,9.284,273.807Z" transform="translate(-0.134 -273.807)"/></g></g><g transform="translate(12.382 59.78)"><path class="a" d="M191.79,392.955h-8.343a.806.806,0,0,0-.806.806v4.049a.806.806,0,0,0,.806.806h8.343a.806.806,0,0,0,.806-.806v-4.049A.806.806,0,0,0,191.79,392.955Z" transform="translate(-182.641 -392.955)"/></g><g transform="translate(24.754 59.781)"><path class="a" d="M374.285,392.957H365.94a.806.806,0,0,0-.806.806v4.049a.806.806,0,0,0,.806.806h8.345a.806.806,0,0,0,.806-.806v-4.049A.806.806,0,0,0,374.285,392.957Z" transform="translate(-365.134 -392.957)"/></g><g transform="translate(12.382 43.629)"><g transform="translate(0 0)"><path class="a" d="M191.79,154.713h-8.343a.806.806,0,0,0-.806.806v12.123a.806.806,0,0,0,.806.806h8.343a.806.806,0,0,0,.806-.806V155.519A.806.806,0,0,0,191.79,154.713Zm-1.935,10.895h-4.474v-8.055h4.474Z" transform="translate(-182.641 -154.713)"/></g></g></g></svg>