<svg xmlns="http://www.w3.org/2000/svg" width="47.586" height="32.99" viewBox="0 0 47.586 32.99"><defs><style>.a{fill:#e83cdb;}</style></defs><g transform="translate(0 -78.521)"><g transform="translate(29.941 99.515)"><path class="a" d="M328.149,304.4a6,6,0,1,0,6,6A6,6,0,0,0,328.149,304.4Zm0,9a3,3,0,1,1,3-3A3,3,0,0,1,328.149,313.4Z" transform="translate(-322.151 -304.403)"/></g><g transform="translate(9.447 99.515)"><path class="a" d="M107.645,304.4a6,6,0,1,0,6,6A6,6,0,0,0,107.645,304.4Zm0,9a3,3,0,1,1,3-3A3,3,0,0,1,107.645,313.4Z" transform="translate(-101.647 -304.403)"/></g><g transform="translate(30.741 81.52)"><g transform="translate(0 0)"><path class="a" d="M339.994,111.616a1.5,1.5,0,0,0-1.34-.826h-7.9v3h6.973l4.083,8.122,2.68-1.348Z" transform="translate(-330.756 -110.79)"/></g></g><g transform="translate(20.094 104.064)"><rect class="a" width="11.347" height="2.999"/></g><g transform="translate(4.249 104.064)"><path class="a" d="M52.413,353.345h-5.2a1.5,1.5,0,0,0,0,3h5.2a1.5,1.5,0,1,0,0-3Z" transform="translate(-45.715 -353.345)"/></g><g transform="translate(4.249 78.521)"><g transform="translate(0 0)"><path class="a" d="M88.737,94.9l-2.95-3.8a1.5,1.5,0,0,0-1.184-.58h-10.9v-10.5a1.5,1.5,0,0,0-1.5-1.5H47.215a1.5,1.5,0,1,0,0,3H70.708v10.5a1.5,1.5,0,0,0,1.5,1.5H83.869l2.184,2.813v7.734H81.9a1.5,1.5,0,1,0,0,3h5.648a1.5,1.5,0,0,0,1.5-1.5V95.816A1.5,1.5,0,0,0,88.737,94.9Z" transform="translate(-45.715 -78.521)"/></g></g><g transform="translate(2.449 96.466)"><g transform="translate(0 0)"><path class="a" d="M34.751,271.6h-6.9a1.5,1.5,0,0,0,0,3h6.9a1.5,1.5,0,0,0,0-3Z" transform="translate(-26.353 -271.597)"/></g></g><g transform="translate(0 90.567)"><g transform="translate(0 0)"><path class="a" d="M14.3,208.134H1.5a1.5,1.5,0,0,0,0,3H14.3a1.5,1.5,0,0,0,0-3Z" transform="translate(0 -208.134)"/></g></g><g transform="translate(2.449 84.669)"><g transform="translate(0 0)"><path class="a" d="M40.649,144.672h-12.8a1.5,1.5,0,1,0,0,3h12.8a1.5,1.5,0,1,0,0-3Z" transform="translate(-26.353 -144.672)"/></g></g></g></svg>