<svg xmlns="http://www.w3.org/2000/svg" width="43.137" height="43.137" viewBox="0 0 43.137 43.137"><defs><style>.a{opacity:0.4;}.b{fill:#fff;}</style></defs><g class="a"><g transform="translate(23.366 23.366)"><path class="b" d="M287.22,277.333a9.886,9.886,0,1,0,9.886,9.886A9.9,9.9,0,0,0,287.22,277.333Zm0,17.974a8.088,8.088,0,1,1,8.088-8.088A8.1,8.1,0,0,1,287.22,295.307Z" transform="translate(-277.334 -277.333)"/></g><g transform="translate(28.758 28.76)"><path class="b" d="M350.051,348.8l-7.19-7.19a.9.9,0,0,0-1.271,1.271l7.19,7.19a.9.9,0,0,0,1.271-1.271Z" transform="translate(-341.328 -341.35)"/></g><g transform="translate(28.758 28.76)"><path class="b" d="M350.051,341.612a.9.9,0,0,0-1.271,0l-7.19,7.19a.9.9,0,0,0,1.271,1.271l7.19-7.19A.9.9,0,0,0,350.051,341.612Z" transform="translate(-341.328 -341.349)"/></g><path class="b" d="M20.67,0a20.67,20.67,0,1,0,2.268,41.211.9.9,0,0,0-.194-1.787,19.294,19.294,0,0,1-2.074.119A18.873,18.873,0,1,1,39.543,20.67a19.294,19.294,0,0,1-.119,2.074.9.9,0,1,0,1.787.194A20.631,20.631,0,0,0,20.67,0Z"/><g transform="translate(8.987)"><path class="b" d="M118.349,0c-6.551,0-11.683,9.079-11.683,20.67s5.132,20.67,11.683,20.67a.9.9,0,0,0,0-1.8c-5.358,0-9.886-8.644-9.886-18.873S112.991,1.8,118.349,1.8s9.886,8.644,9.886,18.873a.9.9,0,0,0,1.8,0C130.032,9.079,124.9,0,118.349,0Z" transform="translate(-106.666)"/></g><g transform="translate(19.771)"><path class="b" d="M235.565,0a.9.9,0,0,0-.9.9V40.441a.9.9,0,1,0,1.8,0V.9A.9.9,0,0,0,235.565,0Z" transform="translate(-234.666)"/></g><g transform="translate(0 19.771)"><path class="b" d="M40.441,234.667H.9a.9.9,0,1,0,0,1.8H40.441a.9.9,0,1,0,0-1.8Z" transform="translate(0 -234.667)"/></g><g transform="translate(3.595 8.987)"><path class="b" d="M75.918,106.667H43.565a.9.9,0,1,0,0,1.8H75.918a.9.9,0,1,0,0-1.8Z" transform="translate(-42.666 -106.667)"/></g><g transform="translate(3.595 30.556)"><path class="b" d="M59.741,362.667H43.565a.9.9,0,0,0,0,1.8H59.741a.9.9,0,0,0,0-1.8Z" transform="translate(-42.666 -362.667)"/></g></g></svg>