<svg xmlns="http://www.w3.org/2000/svg" width="48" height="40" viewBox="0 0 48 40"><defs><style>.a{fill:#fff;}</style></defs><g transform="translate(10 10)"><path class="a" d="M139.666,149.333h-28a1,1,0,0,0,0,2h28a3,3,0,0,1,3,3v16a3,3,0,0,1-3,3h-28a3,3,0,0,1-3-3v-2a1,1,0,0,0-2,0v2a5.007,5.007,0,0,0,5,5h28a5.007,5.007,0,0,0,5-5v-16A5.007,5.007,0,0,0,139.666,149.333Z" transform="translate(-106.666 -149.333)"/></g><g transform="translate(10 28)"><path class="a" d="M143.666,341.333h-36a1,1,0,0,0,0,2h36a1,1,0,1,0,0-2Z" transform="translate(-106.666 -341.333)"/></g><g transform="translate(28 34)"><path class="a" d="M299.666,405.333a1,1,0,0,0-1,1v4a1,1,0,0,0,2,0v-4A1,1,0,0,0,299.666,405.333Z" transform="translate(-298.666 -405.333)"/></g><g transform="translate(20 38)"><path class="a" d="M230.333,448h-16a1,1,0,0,0,0,2h16a1,1,0,0,0,0-2Z" transform="translate(-213.333 -448)"/></g><g transform="translate(2)"><path class="a" d="M32.333,42.667h-10a1,1,0,0,0-1,1v6a1,1,0,0,0,1,1h10a1,1,0,0,0,1-1v-6A1,1,0,0,0,32.333,42.667Zm-1,6h-8v-4h8Z" transform="translate(-21.333 -42.667)"/></g><g transform="translate(0 6)"><path class="a" d="M15,106.667H13a1,1,0,1,0,0,2h1v10.586l-1.414,1.414H3.414L2,119.253V108.667H3a1,1,0,1,0,0-2H1a1,1,0,0,0-1,1v12a1.007,1.007,0,0,0,.292.708l2,2a1.007,1.007,0,0,0,.708.292H13a1.007,1.007,0,0,0,.708-.292l2-2a1.007,1.007,0,0,0,.292-.708v-12A1,1,0,0,0,15,106.667Z" transform="translate(0 -106.667)"/></g><g transform="translate(5 1)"><path class="a" d="M54.333,53.333a1,1,0,0,0-1,1v1a1,1,0,0,0,2,0v-1A1,1,0,0,0,54.333,53.333Z" transform="translate(-53.333 -53.333)"/></g><g transform="translate(9 1)"><path class="a" d="M97,53.333a1,1,0,0,0-1,1v1a1,1,0,1,0,2,0v-1A1,1,0,0,0,97,53.333Z" transform="translate(-96 -53.333)"/></g><g transform="translate(4 6)"><path class="a" d="M49.666,106.667a1,1,0,0,0-1,1v5h-4v-5a1,1,0,0,0-2,0v6a1,1,0,0,0,1,1h6a1,1,0,0,0,1-1v-6A1,1,0,0,0,49.666,106.667Z" transform="translate(-42.666 -106.667)"/></g><g transform="translate(6 14)"><path class="a" d="M67,192H65a1,1,0,1,0,0,2h2a1,1,0,1,0,0-2Z" transform="translate(-64 -192)"/></g><g transform="translate(2 24)"><path class="a" d="M32.78,298.767a1,1,0,0,0-1.342.448l-1.724,3.448H24.95l-1.722-3.446a1,1,0,1,0-1.79.894l2,4a1,1,0,0,0,.894.552h6a1,1,0,0,0,.9-.554l2-4A1,1,0,0,0,32.78,298.767Z" transform="translate(-21.332 -298.663)"/></g><g transform="translate(2 20)"><path class="a" d="M32.333,256a1,1,0,0,0-1,1v3h-8v-3a1,1,0,0,0-2,0v4a1,1,0,0,0,1,1h10a1,1,0,0,0,1-1v-4A1,1,0,0,0,32.333,256Z" transform="translate(-21.333 -256)"/></g><g transform="translate(6 27.999)"><path class="a" d="M66.2,341.343a1,1,0,0,0-1.182.776,56.377,56.377,0,0,0-1.02,10.2,1,1,0,0,0,2,0,55.422,55.422,0,0,1,.978-9.8A1,1,0,0,0,66.2,341.343Z" transform="translate(-64 -341.322)"/></g></svg>