<svg xmlns="http://www.w3.org/2000/svg" width="61.078" height="61.078" viewBox="0 0 61.078 61.078"><defs><style>.a{fill:#fff;}</style></defs><g transform="translate(-42.223 -7.652) rotate(-45)"><g transform="translate(20.12 88.549)"><g transform="translate(0 0)"><path class="a" d="M215.028,361.693a4.325,4.325,0,1,0,4.325,4.325A4.33,4.33,0,0,0,215.028,361.693Z" transform="translate(-210.703 -361.693)"/></g></g><g transform="translate(13.628 78.937)"><path class="a" d="M153.537,261.033a13.916,13.916,0,0,0-10.817,5.159l4.7,4.7a7.968,7.968,0,0,1,6.117-3.128,8.163,8.163,0,0,1,6.117,3.128l4.7-4.7A13.917,13.917,0,0,0,153.537,261.033Z" transform="translate(-142.72 -261.033)"/></g><g transform="translate(0 59.713)"><g transform="translate(0 0)"><path class="a" d="M24.445,59.713A33.144,33.144,0,0,0,0,70.468L4.772,75.24a26.393,26.393,0,0,1,39.346,0l4.772-4.772A33.2,33.2,0,0,0,24.445,59.713Z" transform="translate(0 -59.713)"/></g></g><g transform="translate(6.814 69.325)"><g transform="translate(0 0)"><path class="a" d="M88.989,160.373a23.5,23.5,0,0,0-17.632,7.957l4.768,4.768a16.8,16.8,0,0,1,25.728,0l4.768-4.768A23.5,23.5,0,0,0,88.989,160.373Z" transform="translate(-71.357 -160.373)"/></g></g></g></svg>